<svg version="1.1" xmlns="http://www.w3.org/2000/svg" xmlns:xlink="http://www.w3.org/1999/xlink" x="0px" y="0px" width="33.9px"
	 height="16px" viewBox="0 0 33.9 16" style="overflow:visible;enable-background:new 0 0 33.9 16;" xml:space="preserve">
<defs>
</defs>
<g>
	<circle cx="7" cy="8" r="7"/>
</g>
<g>
	<path d="M22.6,1.6c-0.2,2.6,0.8,5.1,2.7,7c1.7,1.7,4,2.7,6.5,2.7c0.2,0,0.4,0,0.5,0c-0.3,0.6-0.7,1.2-1.2,1.7
		c-1.3,1.3-3.1,2.1-5,2.1c-1.9,0-3.7-0.7-5-2.1c-2.8-2.8-2.8-7.3,0-10.1C21.4,2.3,22,1.9,22.6,1.6 M23.9,0c-1.3,0.4-2.6,1.1-3.7,2.1
		c-3.2,3.2-3.2,8.3,0,11.5c1.6,1.6,3.7,2.4,5.8,2.4c2.1,0,4.2-0.8,5.8-2.4c1-1,1.7-2.3,2.1-3.7c-0.7,0.2-1.4,0.3-2.1,0.3
		c-2.1,0-4.2-0.8-5.7-2.4C23.9,5.7,23.2,2.7,23.9,0L23.9,0z"/>
</g>
</svg>
